<svg xmlns="http://www.w3.org/2000/svg" width="96" height="96" viewBox="0 0 96 96" role="img" aria-label="Transaction Created Count">
  <rect width="96" height="96" rx="22" fill="#dbeafe"/>
  <path d="M28 26h40a6 6 0 0 1 6 6v32a6 6 0 0 1-6 6H28a6 6 0 0 1-6-6V32a6 6 0 0 1 6-6Z" fill="#0f172a" opacity=".96"/>
  <path d="M22 40h52" stroke="#1e3a8a" stroke-width="4"/>
  <path d="M36 20v14M60 20v14" stroke="#0f172a" stroke-width="6" stroke-linecap="round"/>
  <circle cx="36" cy="52" r="5" fill="#93c5fd"/>
  <circle cx="50" cy="52" r="5" fill="#93c5fd"/>
  <circle cx="64" cy="52" r="5" fill="#93c5fd"/>
  <path d="M34 68h28" stroke="#93c5fd" stroke-width="5" stroke-linecap="round"/>
</svg>
